<svg width="356" height="122" viewBox="0 0 356 122" fill="none" xmlns="http://www.w3.org/2000/svg">
<rect width="81.6479" height="81.6479" transform="matrix(0.866044 0.499967 -0.866044 0.499967 70.7107 40)" fill="#434190"/>
<rect width="81.6479" height="81.6479" transform="matrix(0.866044 0.499967 -0.866044 0.499967 70.7107 20)" fill="#4C51BF"/>
<rect width="81.6479" height="81.6479" transform="matrix(0.866044 0.499967 -0.866044 0.499967 70.7107 0)" fill="#5A67D8"/>
<path d="M94.2032 44.9549C99.967 40.5952 98.7202 35.1219 89.5922 29.8523C80.3466 24.5148 69.9717 23.4691 63.0316 27.5027C57.5971 30.6129 57.503 34.6058 63.1492 39.4951L68.1602 43.8276C70.6775 46.0142 70.9598 47.5082 69.1953 48.5811C67.0074 49.7899 63.1492 49.3281 59.6439 47.3045C56.068 45.2401 55.221 42.9856 57.5501 40.9348L47.1752 35.5429C41.1997 40.0791 42.823 45.9327 52.3979 51.4604C61.7612 56.8658 73.2418 57.9795 80.3936 53.8779C85.5928 50.8492 85.3105 47.0736 79.7349 42.1978L74.5122 37.6616C71.8773 35.2985 71.7832 33.9132 73.5476 32.9217C75.6884 31.6587 79.5467 32.2562 82.6521 34.049C86.1339 36.059 86.2986 38.3543 84.4636 39.9841L94.2032 44.9549Z" fill="white"/>
<path d="M179.883 60.734C179.186 57.4218 176.49 55.3464 171.888 55.4267C167.159 55.5093 163.978 57.8918 164.055 61.5217C164.092 64.3852 165.889 66.2461 169.673 66.96L173.034 67.6046C174.844 67.9694 175.7 68.6832 175.719 69.7953C175.743 71.1374 174.303 72.1726 172.105 72.211C169.983 72.248 168.586 71.3518 168.159 69.5948L163.655 70.1082C164.293 73.7027 167.359 75.7844 172.178 75.7003C177.087 75.6146 180.506 73.0105 180.454 69.2907C180.392 66.4916 178.56 64.8103 174.839 64.0697L171.478 63.4124C169.476 62.9998 168.672 62.3234 168.665 61.1856C168.629 59.8564 170.082 58.9105 172.013 58.8768C174.147 58.8395 175.292 59.9831 175.673 61.2678L179.883 60.734Z" fill="#1A202C"/>
<path d="M192.943 75.3379C197.877 75.2517 200.97 72.2697 201.23 68.097L196.807 68.1742C196.448 70.2901 194.948 71.531 192.915 71.5665C190.027 71.6169 188.118 69.2336 188.048 65.22C187.979 61.2576 189.842 58.8469 192.693 58.7971C194.917 58.7583 196.309 60.166 196.7 62.0515L201.123 61.9743C200.729 57.7234 197.357 54.9822 192.563 55.0658C186.812 55.1662 183.254 59.3838 183.359 65.3786C183.462 71.3223 187.076 75.4403 192.943 75.3379Z" fill="#1A202C"/>
<path d="M205.146 74.7413L209.774 74.6605L209.572 63.1182C209.529 60.6257 211.377 58.829 213.92 58.7846C214.7 58.771 215.674 58.8946 216.072 59.0155L215.998 54.7591C215.575 54.6897 214.846 54.6513 214.334 54.6602C212.085 54.6995 210.228 56.0105 209.552 58.2982L209.347 58.3018L209.29 55.0296L204.804 55.1079L205.146 74.7413Z" fill="#1A202C"/>
<path d="M227.308 74.738C231.884 74.6581 234.989 72.3664 235.748 68.9393L231.419 68.529C230.821 70.2016 229.303 71.0975 227.309 71.1323C224.318 71.1846 222.302 69.2507 222.205 65.8896L235.882 65.6509L235.857 64.2321C235.737 57.3425 231.543 54.3854 226.711 54.4698C221.087 54.568 217.49 58.7606 217.596 64.8194C217.704 70.9803 221.39 74.8413 227.308 74.738ZM222.163 62.7706C222.26 60.2628 224.077 58.1214 226.838 58.0732C229.497 58.0268 231.32 59.9385 231.392 62.6095L222.163 62.7706Z" fill="#1A202C"/>
<path d="M248.644 74.3656C253.22 74.2857 256.326 71.994 257.084 68.5668L252.755 68.1565C252.158 69.8291 250.639 70.7251 248.645 70.7599C245.654 70.8121 243.639 68.8783 243.542 65.5172L257.219 65.2785L257.194 63.8597C257.074 56.9701 252.879 54.013 248.048 54.0974C242.423 54.1955 238.827 58.3882 238.933 64.4469C239.04 70.6079 242.726 74.4689 248.644 74.3656ZM243.5 62.3982C243.597 59.8904 245.413 57.749 248.174 57.7008C250.833 57.6544 252.657 59.566 252.729 62.2371L243.5 62.3982Z" fill="#1A202C"/>
<path d="M269.981 73.9932C274.557 73.9133 277.662 71.6215 278.421 68.1944L274.092 67.7841C273.495 69.4567 271.976 70.3527 269.982 70.3875C266.991 70.4397 264.975 68.5058 264.878 65.1448L278.555 64.9061L278.53 63.4872C278.41 56.5977 274.216 53.6406 269.384 53.7249C263.76 53.8231 260.164 58.0158 260.269 64.0745C260.377 70.2355 264.063 74.0965 269.981 73.9932ZM264.837 62.0257C264.933 59.518 266.75 57.3766 269.511 57.3284C272.17 57.282 273.993 59.1936 274.065 61.8646L264.837 62.0257Z" fill="#1A202C"/>
<path d="M287.045 61.8043C286.996 58.9666 288.68 57.3006 291.121 57.258C293.512 57.2163 294.971 58.7635 295.016 61.3839L295.222 73.169L299.849 73.0882L299.631 60.5873C299.562 55.8832 296.831 53.2458 292.779 53.3166C289.839 53.3679 287.844 54.8092 286.987 57.0105L286.757 57.0145L286.699 53.6784L282.276 53.7556L282.619 73.389L287.246 73.3082L287.045 61.8043Z" fill="#1A202C"/>
<path d="M308.723 46.7475L304.096 46.8283L304.553 73.0061L309.18 72.9254L308.723 46.7475Z" fill="#1A202C"/>
<path d="M316.942 80.1163C320.547 80.0533 322.598 78.1508 323.656 75.0509L331.159 52.9279L326.212 52.9887L321.933 67.8952L321.728 67.8988L316.945 53.1505L312.036 53.2361L319.506 73.1543L319.128 74.2221C318.284 76.4105 316.958 76.5998 314.928 76.0599L313.917 79.6704C314.548 79.9279 315.677 80.1384 316.942 80.1163Z" fill="#1A202C"/>
</svg>
