<svg width="283" height="82" viewBox="0 0 283 82" fill="none" xmlns="http://www.w3.org/2000/svg">
<g clip-path="url(#clip0_529_471)">
<rect width="54.4308" height="54.4308" transform="matrix(0.866044 0.499967 -0.866044 0.499967 47.1395 26.6661)" fill="#434190"/>
<rect width="54.4308" height="54.4308" transform="matrix(0.866044 0.499967 -0.866044 0.499967 47.1395 13.3331)" fill="#4C51BF"/>
<rect width="54.4308" height="54.4308" transform="matrix(0.866044 0.499967 -0.866044 0.499967 47.1395 0)" fill="#5A67D8"/>
<path d="M62.8008 29.9693C66.6433 27.0629 65.8121 23.4141 59.7269 19.9011C53.5632 16.3429 46.6468 15.6457 42.0202 18.3348C38.3973 20.4081 38.3346 23.07 42.0986 26.3295L45.4392 29.2178C47.1173 30.6755 47.3055 31.6714 46.1293 32.3867C44.6707 33.1925 42.0986 32.8847 39.7617 31.5356C37.3779 30.1594 36.8133 28.6564 38.3659 27.2893L31.4495 23.6948C27.4659 26.7188 28.548 30.6212 34.9312 34.3062C41.1733 37.9097 48.8268 38.6521 53.5946 35.9178C57.0607 33.8987 56.8725 31.3817 53.1555 28.1313L49.6737 25.1072C47.9172 23.5318 47.8544 22.6083 49.0307 21.9473C50.4579 21.1053 53.03 21.5037 55.1002 22.6988C57.4214 24.0388 57.5312 25.569 56.3079 26.6555L62.8008 29.9693Z" fill="white"/>
<path d="M267.907 56.6818C267.255 56.6818 266.643 56.6295 266.072 56.5249C265.508 56.4283 265.042 56.3035 264.671 56.1506L265.83 52.3111C266.434 52.4962 266.977 52.5968 267.46 52.6129C267.951 52.629 268.374 52.5163 268.728 52.2749C269.09 52.0334 269.384 51.6229 269.61 51.0433L269.911 50.2585L263.259 31.1818H268.668L272.507 44.8011H272.7L276.576 31.1818H282.021L274.813 51.7315C274.467 52.7296 273.996 53.599 273.401 54.3395C272.813 55.0881 272.069 55.6636 271.167 56.0661C270.266 56.4766 269.179 56.6818 267.907 56.6818Z" fill="#18181B"/>
<path d="M259.932 25V49.7273H254.788V25H259.932Z" fill="#18181B"/>
<path d="M238.101 39.0056V49.7272H232.958V31.1818H237.86V34.4538H238.077C238.487 33.3752 239.176 32.522 240.142 31.8941C241.108 31.2583 242.279 30.9403 243.655 30.9403C244.943 30.9403 246.066 31.222 247.024 31.7855C247.982 32.3489 248.726 33.1538 249.257 34.2003C249.789 35.2386 250.054 36.4782 250.054 37.919V49.7272H244.911V38.8366C244.919 37.7017 244.629 36.8163 244.041 36.1804C243.454 35.5364 242.645 35.2145 241.615 35.2145C240.922 35.2145 240.311 35.3634 239.779 35.6612C239.256 35.959 238.846 36.3937 238.548 36.9652C238.258 37.5286 238.109 38.2088 238.101 39.0056Z" fill="#18181B"/>
<path d="M220.409 50.0895C218.501 50.0895 216.859 49.7031 215.483 48.9304C214.115 48.1496 213.06 47.0468 212.32 45.6221C211.579 44.1894 211.209 42.495 211.209 40.539C211.209 38.6314 211.579 36.9571 212.32 35.5163C213.06 34.0755 214.102 32.9526 215.447 32.1477C216.799 31.3428 218.385 30.9403 220.204 30.9403C221.427 30.9403 222.566 31.1375 223.621 31.5319C224.683 31.9183 225.609 32.5019 226.398 33.2826C227.195 34.0634 227.814 35.0454 228.257 36.2287C228.7 37.4038 228.921 38.7803 228.921 40.3579V41.7706H213.261V38.5831H224.08C224.08 37.8425 223.919 37.1865 223.597 36.615C223.275 36.0435 222.828 35.5968 222.256 35.2748C221.693 34.9448 221.037 34.7798 220.288 34.7798C219.508 34.7798 218.815 34.9609 218.212 35.3231C217.616 35.6773 217.149 36.1562 216.811 36.7599C216.473 37.3556 216.3 38.0196 216.292 38.7521V41.7826C216.292 42.7003 216.461 43.4931 216.799 44.1612C217.145 44.8293 217.632 45.3444 218.26 45.7066C218.888 46.0689 219.632 46.25 220.494 46.25C221.065 46.25 221.588 46.1695 222.063 46.0085C222.538 45.8475 222.945 45.606 223.283 45.2841C223.621 44.9621 223.878 44.5677 224.055 44.1008L228.812 44.4147C228.571 45.5577 228.076 46.5558 227.327 47.4091C226.587 48.2542 225.629 48.9143 224.454 49.3892C223.287 49.856 221.938 50.0895 220.409 50.0895Z" fill="#18181B"/>
<path d="M199.409 50.0895C197.501 50.0895 195.859 49.7031 194.483 48.9304C193.114 48.1496 192.06 47.0468 191.319 45.6221C190.579 44.1894 190.208 42.495 190.208 40.539C190.208 38.6314 190.579 36.9571 191.319 35.5163C192.06 34.0755 193.102 32.9526 194.446 32.1477C195.799 31.3428 197.384 30.9403 199.203 30.9403C200.427 30.9403 201.566 31.1375 202.62 31.5319C203.683 31.9183 204.609 32.5019 205.397 33.2826C206.194 34.0634 206.814 35.0454 207.257 36.2287C207.699 37.4038 207.921 38.7803 207.921 40.3579V41.7706H192.261V38.5831H203.079C203.079 37.8425 202.918 37.1865 202.596 36.615C202.274 36.0435 201.828 35.5968 201.256 35.2748C200.693 34.9448 200.037 34.7798 199.288 34.7798C198.507 34.7798 197.815 34.9609 197.211 35.3231C196.616 35.6773 196.149 36.1562 195.811 36.7599C195.473 37.3556 195.3 38.0196 195.292 38.7521V41.7826C195.292 42.7003 195.461 43.4931 195.799 44.1612C196.145 44.8293 196.632 45.3444 197.26 45.7066C197.887 46.0689 198.632 46.25 199.493 46.25C200.065 46.25 200.588 46.1695 201.063 46.0085C201.538 45.8475 201.944 45.606 202.282 45.2841C202.62 44.9621 202.878 44.5677 203.055 44.1008L207.812 44.4147C207.571 45.5577 207.076 46.5558 206.327 47.4091C205.587 48.2542 204.629 48.9143 203.453 49.3892C202.286 49.856 200.938 50.0895 199.409 50.0895Z" fill="#18181B"/>
<path d="M178.408 50.0895C176.501 50.0895 174.859 49.7031 173.482 48.9304C172.114 48.1496 171.059 47.0468 170.319 45.6221C169.578 44.1894 169.208 42.495 169.208 40.539C169.208 38.6314 169.578 36.9571 170.319 35.5163C171.059 34.0755 172.102 32.9526 173.446 32.1477C174.798 31.3428 176.384 30.9403 178.203 30.9403C179.427 30.9403 180.566 31.1375 181.62 31.5319C182.683 31.9183 183.608 32.5019 184.397 33.2826C185.194 34.0634 185.814 35.0454 186.256 36.2287C186.699 37.4038 186.92 38.7803 186.92 40.3579V41.7706H171.261V38.5831H182.079C182.079 37.8425 181.918 37.1865 181.596 36.615C181.274 36.0435 180.827 35.5968 180.256 35.2748C179.692 34.9448 179.036 34.7798 178.288 34.7798C177.507 34.7798 176.815 34.9609 176.211 35.3231C175.615 35.6773 175.148 36.1562 174.81 36.7599C174.472 37.3556 174.299 38.0196 174.291 38.7521V41.7826C174.291 42.7003 174.46 43.4931 174.798 44.1612C175.144 44.8293 175.631 45.3444 176.259 45.7066C176.887 46.0689 177.632 46.25 178.493 46.25C179.064 46.25 179.588 46.1695 180.063 46.0085C180.537 45.8475 180.944 45.606 181.282 45.2841C181.62 44.9621 181.878 44.5677 182.055 44.1008L186.812 44.4147C186.57 45.5577 186.075 46.5558 185.327 47.4091C184.586 48.2542 183.628 48.9143 182.453 49.3892C181.286 49.856 179.938 50.0895 178.408 50.0895Z" fill="#18181B"/>
<path d="M156.228 49.7273V31.1818H161.214V34.4176H161.408C161.746 33.2666 162.313 32.3973 163.11 31.8097C163.907 31.214 164.824 30.9162 165.863 30.9162C166.12 30.9162 166.398 30.9323 166.696 30.9645C166.994 30.9967 167.255 31.041 167.481 31.0973V35.6612C167.239 35.5888 166.905 35.5244 166.479 35.468C166.052 35.4117 165.662 35.3835 165.307 35.3835C164.551 35.3835 163.875 35.5485 163.279 35.8786C162.691 36.2005 162.225 36.6513 161.878 37.2308C161.54 37.8104 161.371 38.4785 161.371 39.2351V49.7273H156.228Z" fill="#18181B"/>
<path d="M143.972 50.0895C142.072 50.0895 140.438 49.687 139.07 48.8821C137.71 48.0691 136.663 46.9422 135.931 45.5014C135.206 44.0606 134.844 42.4024 134.844 40.527C134.844 38.6273 135.21 36.9611 135.943 35.5284C136.683 34.0876 137.734 32.9647 139.094 32.1598C140.455 31.3468 142.072 30.9403 143.948 30.9403C145.566 30.9403 146.982 31.2341 148.198 31.8217C149.413 32.4093 150.375 33.2343 151.084 34.2968C151.792 35.3593 152.182 36.607 152.255 38.0397H147.401C147.264 37.1141 146.902 36.3695 146.314 35.8061C145.735 35.2346 144.974 34.9488 144.032 34.9488C143.236 34.9488 142.539 35.1662 141.944 35.6008C141.356 36.0274 140.897 36.6512 140.567 37.4723C140.237 38.2933 140.072 39.2874 140.072 40.4545C140.072 41.6378 140.233 42.6439 140.555 43.473C140.885 44.3021 141.348 44.9339 141.944 45.3686C142.539 45.8032 143.236 46.0206 144.032 46.0206C144.62 46.0206 145.147 45.8998 145.614 45.6583C146.089 45.4169 146.479 45.0667 146.785 44.6079C147.099 44.1411 147.304 43.5816 147.401 42.9297H152.255C152.174 44.3463 151.788 45.594 151.096 46.6726C150.411 47.7431 149.466 48.5802 148.258 49.1839C147.051 49.7876 145.622 50.0895 143.972 50.0895Z" fill="#18181B"/>
<path d="M131.251 36.4701L126.543 36.7599C126.462 36.3574 126.289 35.9952 126.023 35.6733C125.758 35.3432 125.408 35.0816 124.973 34.8885C124.546 34.6872 124.035 34.5866 123.44 34.5866C122.643 34.5866 121.971 34.7556 121.423 35.0937C120.876 35.4237 120.602 35.8664 120.602 36.4218C120.602 36.8645 120.779 37.2388 121.134 37.5447C121.488 37.8506 122.095 38.0961 122.957 38.2812L126.313 38.9574C128.116 39.3276 129.46 39.9233 130.346 40.7443C131.231 41.5653 131.674 42.6439 131.674 43.9801C131.674 45.1955 131.316 46.262 130.599 47.1797C129.891 48.0973 128.917 48.8137 127.678 49.3288C126.446 49.8359 125.025 50.0895 123.415 50.0895C120.96 50.0895 119.004 49.5783 117.548 48.5561C116.099 47.5258 115.25 46.1252 115 44.3544L120.059 44.0887C120.212 44.8373 120.582 45.4088 121.17 45.8032C121.757 46.1896 122.51 46.3828 123.428 46.3828C124.329 46.3828 125.054 46.2097 125.601 45.8636C126.156 45.5094 126.438 45.0547 126.446 44.4993C126.438 44.0324 126.241 43.6501 125.854 43.3522C125.468 43.0464 124.872 42.8129 124.067 42.652L120.856 42.012C119.045 41.6498 117.696 41.022 116.811 40.1285C115.934 39.2351 115.495 38.0961 115.495 36.7116C115.495 35.5203 115.817 34.494 116.461 33.6328C117.113 32.7715 118.027 32.1074 119.202 31.6406C120.385 31.1737 121.769 30.9403 123.355 30.9403C125.697 30.9403 127.541 31.4353 128.885 32.4254C130.237 33.4154 131.026 34.7637 131.251 36.4701Z" fill="#18181B"/>
</g>
<defs>
<clipPath id="clip0_529_471">
<rect width="283" height="82" fill="white"/>
</clipPath>
</defs>
</svg>
