<svg width="142" height="122" viewBox="0 0 142 122" fill="none" xmlns="http://www.w3.org/2000/svg">
<rect width="81.6479" height="81.6479" transform="matrix(0.866044 0.499967 -0.866044 0.499967 70.7107 40)" fill="#434190"/>
<rect width="81.6479" height="81.6479" transform="matrix(0.866044 0.499967 -0.866044 0.499967 70.7107 20)" fill="#4C51BF"/>
<rect width="81.6479" height="81.6479" transform="matrix(0.866044 0.499967 -0.866044 0.499967 70.7107 0)" fill="#5A67D8"/>
<path d="M94.2032 44.9549C99.967 40.5952 98.7202 35.1219 89.5922 29.8523C80.3466 24.5148 69.9717 23.4691 63.0316 27.5027C57.5971 30.6129 57.503 34.6058 63.1492 39.4951L68.1602 43.8276C70.6775 46.0142 70.9598 47.5082 69.1953 48.5811C67.0074 49.7899 63.1492 49.3281 59.6439 47.3045C56.068 45.2401 55.221 42.9856 57.5501 40.9348L47.1752 35.5429C41.1997 40.0791 42.823 45.9327 52.3979 51.4604C61.7612 56.8658 73.2418 57.9795 80.3936 53.8779C85.5928 50.8492 85.3105 47.0736 79.7349 42.1978L74.5122 37.6616C71.8773 35.2985 71.7832 33.9132 73.5476 32.9217C75.6884 31.6587 79.5467 32.2562 82.6521 34.049C86.1339 36.059 86.2986 38.3543 84.4636 39.9841L94.2032 44.9549Z" fill="white"/>
</svg>
